# xmcd CD database file
#
# Track frame offsets:
#	182
#	12067
#	27377
#	44472
#	58587
#	64705
#	77595
#	88527
#	99887
#	115030
#	125342
#	142845
#	153270
#	162057
#
# Disc length: 2347 seconds
#
# Revision: 0
# Processed by: cddbd v1.4PL0 Copyright (c) Steve Scherf et al.
# Submitted via: CDex 1.40Beta9
#
DISCID=9c09290e
DTITLE=The Sally Rose Band - I love country
DYEAR=1993
DGENRE=Country
TTITLE0=Satisfy you
TTITLE1=Diamond in my crown
TTITLE2=The fiddlin man
TTITLE3=He loves you
TTITLE4=Fire on the mountain
TTITLE5=Never you follow your cowboy
TTITLE6=On my mind
TTITLE7=Blue moon of kentucky
TTITLE8=Oh, promises, promises
TTITLE9=Green is the color of my life
TTITLE10=Butterfly love
TTITLE11=Gonna get married right now
TTITLE12=Orange blossom special
TTITLE13=In my tennessee mountain home
EXTD=YEAR: 1993 ID3G: 2
EXTT0=
EXTT1=
EXTT2=
EXTT3=
EXTT4=
EXTT5=
EXTT6=
EXTT7=
EXTT8=
EXTT9=
EXTT10=
EXTT11=
EXTT12=
EXTT13=
PLAYORDER=
